<svg 
 xmlns="http://www.w3.org/2000/svg"
 xmlns:xlink="http://www.w3.org/1999/xlink"
 width="37px" height="45px">
<path fill-rule="evenodd"  fill="rgb(163, 187, 200)"
 d="M31.941,22.244 C29.151,22.244 26.881,20.004 26.881,17.249 C26.881,14.495 29.151,12.254 31.941,12.254 C34.730,12.254 37.000,14.495 37.000,17.249 C37.000,20.004 34.730,22.244 31.941,22.244 ZM31.941,14.204 C30.240,14.204 28.857,15.570 28.857,17.249 C28.857,18.929 30.240,20.294 31.941,20.294 C33.641,20.294 35.025,18.929 35.025,17.249 C35.025,15.570 33.641,14.204 31.941,14.204 ZM31.941,10.908 C29.151,10.908 26.881,8.667 26.881,5.913 C26.881,3.158 29.151,0.918 31.941,0.918 C34.730,0.918 37.000,3.158 37.000,5.913 C37.000,8.667 34.730,10.908 31.941,10.908 ZM31.941,2.867 C30.240,2.867 28.857,4.234 28.857,5.913 C28.857,7.592 30.240,8.959 31.941,8.959 C33.641,8.959 35.025,7.592 35.025,5.913 C35.025,4.234 33.641,2.867 31.941,2.867 ZM18.499,44.917 C15.710,44.917 13.440,42.676 13.440,39.922 C13.440,37.168 15.710,34.927 18.499,34.927 C21.289,34.927 23.559,37.168 23.559,39.922 C23.559,42.677 21.289,44.917 18.499,44.917 ZM18.499,36.877 C16.799,36.877 15.415,38.243 15.415,39.922 C15.415,41.601 16.799,42.967 18.499,42.967 C20.200,42.967 21.585,41.601 21.585,39.922 C21.585,38.243 20.200,36.877 18.499,36.877 ZM18.499,33.581 C15.710,33.581 13.440,31.340 13.440,28.586 C13.440,25.831 15.710,23.591 18.499,23.591 C21.289,23.591 23.559,25.831 23.559,28.586 C23.559,31.340 21.289,33.581 18.499,33.581 ZM18.499,25.540 C16.799,25.540 15.415,26.907 15.415,28.586 C15.415,30.265 16.799,31.632 18.499,31.632 C20.200,31.632 21.585,30.265 21.585,28.586 C21.585,26.907 20.200,25.540 18.499,25.540 ZM18.499,22.244 C15.710,22.244 13.440,20.004 13.440,17.249 C13.440,14.495 15.710,12.254 18.499,12.254 C21.289,12.254 23.559,14.495 23.559,17.249 C23.559,20.004 21.289,22.244 18.499,22.244 ZM18.499,14.204 C16.799,14.204 15.415,15.570 15.415,17.249 C15.415,18.929 16.799,20.294 18.499,20.294 C20.200,20.294 21.585,18.929 21.585,17.249 C21.585,15.570 20.200,14.204 18.499,14.204 ZM18.499,10.908 C15.710,10.908 13.440,8.667 13.440,5.913 C13.440,3.158 15.710,0.918 18.499,0.918 C21.289,0.918 23.559,3.158 23.559,5.913 C23.559,8.667 21.289,10.908 18.499,10.908 ZM18.499,2.867 C16.799,2.867 15.415,4.234 15.415,5.913 C15.415,7.592 16.799,8.959 18.499,8.959 C20.200,8.959 21.585,7.592 21.585,5.913 C21.585,4.234 20.200,2.867 18.499,2.867 ZM5.059,33.581 C2.269,33.581 -0.000,31.340 -0.000,28.586 C-0.000,25.831 2.269,23.591 5.059,23.591 C7.849,23.591 10.118,25.831 10.118,28.586 C10.118,31.340 7.849,33.581 5.059,33.581 ZM5.059,25.540 C3.358,25.540 1.974,26.907 1.974,28.586 C1.974,30.265 3.358,31.632 5.059,31.632 C6.760,31.632 8.143,30.265 8.143,28.586 C8.143,26.907 6.760,25.540 5.059,25.540 ZM5.059,22.244 C2.269,22.244 -0.000,20.004 -0.000,17.249 C-0.000,14.495 2.269,12.254 5.059,12.254 C7.849,12.254 10.118,14.495 10.118,17.249 C10.118,20.004 7.849,22.244 5.059,22.244 ZM5.059,14.204 C3.358,14.204 1.974,15.570 1.974,17.249 C1.974,18.929 3.358,20.294 5.059,20.294 C6.760,20.294 8.143,18.929 8.143,17.249 C8.143,15.570 6.760,14.204 5.059,14.204 ZM5.059,10.908 C2.269,10.908 -0.000,8.667 -0.000,5.913 C-0.000,3.158 2.269,0.918 5.059,0.918 C7.849,0.918 10.118,3.158 10.118,5.913 C10.118,8.667 7.849,10.908 5.059,10.908 ZM5.059,2.867 C3.358,2.867 1.974,4.234 1.974,5.913 C1.974,7.592 3.358,8.959 5.059,8.959 C6.760,8.959 8.143,7.592 8.143,5.913 C8.143,4.234 6.760,2.867 5.059,2.867 ZM31.941,23.591 C34.730,23.591 37.000,25.831 37.000,28.586 C37.000,31.340 34.730,33.581 31.941,33.581 C29.151,33.581 26.881,31.340 26.881,28.586 C26.881,25.831 29.151,23.591 31.941,23.591 ZM31.941,31.632 C33.641,31.632 35.025,30.265 35.025,28.586 C35.025,26.907 33.641,25.540 31.941,25.540 C30.240,25.540 28.857,26.907 28.857,28.586 C28.857,30.265 30.240,31.632 31.941,31.632 Z"/>
</svg>