<svg 
 xmlns="http://www.w3.org/2000/svg"
 xmlns:xlink="http://www.w3.org/1999/xlink"
 width="37px" height="35px">
<path fill-rule="evenodd"  fill="rgb(163, 187, 200)"
 d="M36.053,34.870 L0.976,34.918 L0.975,34.918 C0.724,34.918 0.484,34.820 0.306,34.646 C0.128,34.472 0.028,34.234 0.028,33.987 L-0.000,13.786 C-0.000,13.780 0.001,13.775 0.001,13.769 C0.005,13.478 0.147,13.194 0.409,13.015 L5.731,9.399 L5.731,5.561 C5.731,5.047 6.155,4.629 6.679,4.629 L12.746,4.629 L17.963,1.083 C18.288,0.862 18.718,0.863 19.042,1.084 L24.227,4.629 L30.320,4.629 C30.843,4.629 31.267,5.047 31.267,5.561 L31.267,9.443 L36.564,13.064 C36.753,13.194 36.880,13.379 36.937,13.583 C36.958,13.629 36.971,13.712 36.971,13.767 L36.999,33.937 C37.000,34.450 36.576,34.869 36.053,34.870 ZM33.226,33.010 L18.514,21.786 L3.748,33.051 L33.226,33.010 ZM5.731,11.662 L2.613,13.782 L5.731,15.903 L5.731,11.662 ZM1.897,15.563 L1.920,32.086 L13.363,23.356 L1.897,15.563 ZM18.500,2.984 L16.079,4.629 L20.907,4.629 L18.500,2.984 ZM29.372,6.493 L7.626,6.493 L7.626,17.190 L14.934,22.158 L17.933,19.870 C18.278,19.607 18.749,19.616 19.081,19.862 C19.086,19.865 19.090,19.867 19.094,19.870 L22.071,22.142 L29.372,17.149 L29.372,6.493 ZM31.267,11.713 L31.267,15.854 L34.295,13.783 L31.267,11.713 ZM35.078,15.517 L23.640,23.338 L35.101,32.082 L35.078,15.517 ZM11.137,15.999 C11.137,15.485 11.561,15.067 12.085,15.067 L24.915,15.067 C25.437,15.067 25.861,15.485 25.861,15.999 C25.861,16.514 25.437,16.932 24.915,16.932 L12.085,16.932 C11.561,16.932 11.137,16.514 11.137,15.999 ZM24.915,12.085 L12.085,12.085 C11.561,12.085 11.137,11.667 11.137,11.153 C11.137,10.639 11.561,10.221 12.085,10.221 L24.915,10.221 C25.437,10.221 25.861,10.639 25.861,11.153 C25.861,11.667 25.437,12.085 24.915,12.085 Z"/>
</svg>